<svg width="144" height="144" viewBox="0 0 144 144" fill="none" xmlns="http://www.w3.org/2000/svg">
<circle cx="72" cy="72" r="72" fill="#EFB90A"/>
<path d="M46.0759 35.7118L72.6004 20.4023L99.1247 35.7118L89.373 41.3675L72.6004 31.7138L55.8276 41.3675L46.0759 35.7118ZM99.1247 55.0193L89.373 49.3636L72.6004 59.0173L55.8276 49.3636L46.0759 55.0193V66.3306L62.8487 75.9844V95.2921L72.6004 100.948L82.3521 95.2921V75.9844L99.1247 66.3306V55.0193ZM99.1247 85.6382V74.3271L89.373 79.9827V91.2938L99.1247 85.6382ZM106.049 89.6365L89.2761 99.2898V110.601L115.8 95.2921V64.6732L106.049 70.3288V89.6365ZM96.297 45.3656L106.049 51.0213V62.3329L115.8 56.677V45.3656L106.049 39.7098L96.297 45.3656ZM62.8487 103.385V114.697L72.6004 120.353L82.3521 114.697V103.385L72.6004 109.041L62.8487 103.385ZM46.0759 85.6382L55.8276 91.2938V79.9827L46.0759 74.3271V85.6382ZM62.8487 45.3656L72.6004 51.0213L82.3521 45.3656L72.6004 39.7098L62.8487 45.3656ZM39.1521 51.0213L48.9038 45.3656L39.1521 39.7098L29.4004 45.3656V56.677L39.1521 62.3329V51.0213ZM39.1521 70.3288L29.4004 64.6732V95.2921L55.9249 110.601V99.2898L39.1521 89.6365V70.3288Z" fill="white"/>
</svg>
