<svg width="201" height="201" viewBox="0 0 201 201" fill="none" xmlns="http://www.w3.org/2000/svg">
<path d="M100.4 200.699C155.629 200.699 200.4 155.928 200.4 100.699C200.4 45.4707 155.629 0.699219 100.4 0.699219C45.1719 0.699219 0.400391 45.4707 0.400391 100.699C0.400391 155.928 45.1719 200.699 100.4 200.699Z" fill="#627EEA"/>
<path d="M103.518 25.6836V81.1237L150.374 102.064L103.518 25.6836Z" fill="white" fill-opacity="0.602"/>
<path d="M103.516 25.6836L56.6602 102.064L103.516 81.1237V25.6836Z" fill="white"/>
<path d="M103.518 137.986V175.657L150.401 110.785L103.518 137.986Z" fill="white" fill-opacity="0.602"/>
<path d="M103.516 175.657V137.986L56.6602 110.785L103.516 175.657Z" fill="white"/>
<path d="M103.518 129.266L150.374 102.065L103.518 81.125V129.266Z" fill="white" fill-opacity="0.2"/>
<path d="M56.6602 102.065L103.516 129.266V81.125L56.6602 102.065Z" fill="white" fill-opacity="0.602"/>
</svg>
