<svg width="160" height="160" viewBox="0 0 160 160" fill="none" xmlns="http://www.w3.org/2000/svg">
<path d="M105.635 110.984L92.3436 114.516C91.5408 114.729 91.0656 115.552 91.2832 116.356L97.3824 138.929C98.9764 144.829 105.039 148.341 110.925 146.777L122.641 143.664C126.834 142.55 129.313 138.239 128.178 134.035C127.042 129.832 122.722 127.327 118.528 128.442L116.228 129.053C114.088 129.622 111.884 128.347 111.304 126.202L107.482 112.054C107.264 111.25 106.438 110.771 105.635 110.984Z" fill="#AF8609"/>
<path fill-rule="evenodd" clip-rule="evenodd" d="M87.8965 117.256C87.1701 114.566 88.7617 111.824 91.4297 111.115L104.722 107.583C107.395 106.873 110.153 108.467 110.878 111.151L114.701 125.299C114.772 125.563 115.043 125.725 115.315 125.652L117.616 125.041C123.682 123.429 129.932 127.052 131.575 133.133C133.218 139.214 129.632 145.45 123.566 147.062L111.849 150.175C104.091 152.237 96.0981 147.609 93.9961 139.829L87.8965 117.256ZM95.2041 117.399L100.778 138.027C101.865 142.049 105.997 144.444 110.012 143.377L121.729 140.264C124.05 139.647 125.421 137.261 124.793 134.935C124.164 132.609 121.773 131.223 119.453 131.839L117.152 132.451C113.144 133.516 109.007 131.129 107.919 127.101L104.621 114.896L95.2041 117.399Z" fill="#25362A"/>
<path d="M28.2137 37.2467L72.9392 11.9799C76.1648 10.1577 80.1116 10.1577 83.3368 11.9799L128.062 37.2467C131.371 39.116 133.417 42.617 133.417 46.4118V97.6114C133.417 101.381 131.398 104.863 128.124 106.742L83.4788 132.357C80.1788 134.25 76.1128 134.223 72.8384 132.287L28.0323 105.788C24.8257 103.892 22.8594 100.448 22.8594 96.7282V46.4118C22.8594 42.617 24.9048 39.116 28.2137 37.2467Z" fill="#CE9C10"/>
<path d="M59.1357 43.6558L79.1845 32.6523L99.2332 43.6558L91.8624 47.7206L79.1845 40.7822L66.5065 47.7206L59.1357 43.6558ZM99.2332 57.5322L91.8624 53.4674L79.1845 60.4058L66.5065 53.4674L59.1357 57.5322V65.6622L71.8136 72.6006V86.4774L79.1845 90.5422L86.5552 86.4774V72.6006L99.2332 65.6622V57.5322ZM99.2332 79.539V71.409L91.8624 75.4742V83.6038L99.2332 79.539ZM104.466 82.4122L91.7889 89.3506V97.4806L111.837 86.4774V64.4706L104.466 68.5358V82.4122ZM97.0956 50.5938L104.466 54.659V62.7886L111.837 58.7238V50.5938L104.466 46.529L97.0956 50.5938ZM71.8136 92.2942V100.424L79.1845 104.489L86.5552 100.424V92.2942L79.1845 96.3594L71.8136 92.2942ZM59.1357 79.539L66.5065 83.6038V75.4742L59.1357 71.409V79.539ZM71.8136 50.5938L79.1845 54.659L86.5552 50.5938L79.1845 46.529L71.8136 50.5938ZM53.9021 54.659L61.2733 50.5938L53.9021 46.529L46.5312 50.5938V58.7238L53.9021 62.7886V54.659ZM53.9021 68.5358L46.5312 64.4706V86.4774L66.5801 97.4806V89.3506L53.9021 82.4122V68.5358Z" fill="#E9B911"/>
<path fill-rule="evenodd" clip-rule="evenodd" d="M82.6212 14.6412C80.4584 13.4202 77.812 13.4202 75.6496 14.6412L30.6662 40.039C28.4475 41.2918 27.076 43.6382 27.076 46.181V96.7586C27.076 99.251 28.3944 101.559 30.5445 102.83L75.6088 129.466C77.8044 130.764 80.5308 130.782 82.7432 129.513L127.646 103.765C129.841 102.506 131.194 100.173 131.194 97.6466V46.181C131.194 43.6382 129.823 41.2918 127.604 40.039L82.6212 14.6412ZM72.1636 8.49959C76.4888 6.05743 81.7816 6.05743 86.1072 8.49959L131.09 33.8975C135.528 36.4028 138.271 41.0954 138.271 46.181V97.6466C138.271 102.699 135.564 107.365 131.172 109.883L86.2704 135.631C81.8448 138.169 76.3924 138.133 72.0012 135.537L26.937 108.901C22.6368 106.359 20 101.744 20 96.7586V46.181C20 41.0954 22.743 36.4029 27.1802 33.8975L72.1636 8.49959Z" fill="#50C194"/>
<path d="M73.9922 119.276V75.2493C73.9922 70.2369 76.6138 65.6061 80.8682 63.1017L117.673 41.4381C124.543 37.394 133.128 42.4545 133.128 50.5489V96.5209C133.128 100.274 131.168 103.744 127.984 105.624L89.4606 128.378C82.5902 132.437 73.9922 127.377 73.9922 119.276Z" fill="#FFCD1B"/>
<path fill-rule="evenodd" clip-rule="evenodd" d="M82.6212 14.6412C80.4584 13.4201 77.812 13.4202 75.6496 14.6412L30.6662 40.039C28.4475 41.2918 27.076 43.6382 27.076 46.181V96.7582C27.076 99.251 28.3944 101.559 30.5445 102.83L75.6088 129.466C77.8044 130.764 80.5308 130.782 82.7432 129.513L127.646 103.765C129.841 102.506 131.194 100.173 131.194 97.6466V46.181C131.194 43.6382 129.823 41.2918 127.604 40.039L82.6212 14.6412ZM72.1636 8.49959C76.4888 6.05743 81.7816 6.05743 86.1072 8.49959L131.09 33.8975C135.528 36.4028 138.271 41.0954 138.271 46.181V97.6466C138.271 102.698 135.564 107.365 131.172 109.883L86.2704 135.631C81.8448 138.169 76.3924 138.133 72.0012 135.537L26.937 108.901C22.6368 106.359 20 101.744 20 96.7582V46.181C20 41.0954 22.743 36.4028 27.1802 33.8975L72.1636 8.49959Z" fill="#25362A"/>
<path d="M102.525 84.7509C102.525 90.2397 99.3405 94.6889 95.4113 94.6889C91.4821 94.6889 88.2969 90.2397 88.2969 84.7509C88.2969 79.2621 91.4821 74.8125 95.4113 74.8125C99.3405 74.8125 102.525 79.2621 102.525 84.7509Z" fill="white"/>
<path d="M122.447 73.395C122.447 78.8838 119.262 83.3334 115.333 83.3334C111.404 83.3334 108.219 78.8838 108.219 73.395C108.219 67.9062 111.404 63.457 115.333 63.457C119.262 63.457 122.447 67.9062 122.447 73.395Z" fill="white"/>
<path d="M65.7597 108.816L53.2717 103.086C52.5177 102.74 51.6233 103.071 51.2737 103.827C48.7317 109.324 42.5433 122.75 38.1023 132.378C35.542 137.929 37.947 144.482 43.4769 147.019L54.4845 152.07C58.4245 153.877 63.1029 152.139 64.9345 148.187C66.7661 144.236 65.0569 139.567 61.1173 137.759L58.9449 136.762C56.9385 135.842 56.0621 133.472 56.9889 131.457C59.5809 125.821 64.4773 115.176 66.4953 110.804C66.8449 110.047 66.5137 109.162 65.7597 108.816Z" fill="#AF8609"/>
<path fill-rule="evenodd" clip-rule="evenodd" d="M48.0863 102.364C49.2575 99.8316 52.2475 98.736 54.7535 99.886L67.2427 105.616C69.7315 106.758 70.8603 109.712 69.6859 112.257C67.6691 116.626 62.7735 127.269 60.1807 132.907C60.0679 133.152 60.1699 133.447 60.4275 133.565L62.5999 134.562C68.2999 137.177 70.7723 143.931 68.1227 149.648C65.4727 155.365 58.7039 157.88 53.0043 155.265L41.9951 150.214C34.7071 146.87 31.5382 138.236 34.9123 130.92C36.0618 128.428 37.3286 125.681 38.6191 122.883C42.3135 114.871 46.2015 106.44 48.0863 102.364ZM53.6147 107.114C51.5543 111.574 48.2047 118.838 44.9995 125.789C43.7083 128.588 42.4407 131.337 41.2903 133.832C39.5432 137.62 41.1847 142.092 44.9575 143.822L55.9667 148.873C58.1471 149.874 60.7367 148.912 61.7503 146.725C62.7639 144.538 61.8179 141.954 59.6375 140.953L57.4651 139.956C53.7091 138.233 52.0583 133.788 53.7995 130.003C56.0795 125.045 60.1447 116.207 62.4643 111.174L53.6147 107.114Z" fill="#25362A"/>
</svg>
