<svg width="201" height="201" viewBox="0 0 201 201" fill="none" xmlns="http://www.w3.org/2000/svg">
<ellipse cx="85.0968" cy="50.9992" rx="39.3546" ry="39.3468" fill="#121212"/>
<mask id="mask0_4117_10006" style="mask-type:luminance" maskUnits="userSpaceOnUse" x="67" y="32" width="37" height="38">
<path d="M103.127 32.1094H67.3867V69.8437H103.127V32.1094Z" fill="white"/>
</mask>
<g mask="url(#mask0_4117_10006)">
<path d="M97.0692 69.8457H67.3867V38.2344H74.1781V63.7193H97.0692V69.8424V69.8457Z" fill="white"/>
<path d="M97.0686 44.3555C100.414 44.3555 103.127 41.6141 103.127 38.2324C103.127 34.8508 100.414 32.1094 97.0686 32.1094C93.723 32.1094 91.0107 34.8508 91.0107 38.2324C91.0107 41.6141 93.723 44.3555 97.0686 44.3555Z" fill="white"/>
</g>
<path d="M100.76 0.398438C156.014 0.398438 200.8 45.1751 200.8 100.418C200.8 155.661 156.014 200.398 100.8 200.398C45.546 200.398 0.799831 155.622 0.799831 100.418C0.760476 45.1751 45.546 0.398438 100.76 0.398438Z" fill="#8247E5"/>
<mask id="mask1_4117_10006" style="mask-type:luminance" maskUnits="userSpaceOnUse" x="34" y="43" width="132" height="116">
<path d="M165.618 43.6445H34.5283V158.498H165.618V43.6445Z" fill="white"/>
</mask>
<g mask="url(#mask1_4117_10006)">
<path d="M133.543 78.6245C131.143 77.2474 128.073 77.2474 125.357 78.6245L106.231 89.9564L93.2441 97.1569L74.4719 108.449C72.0713 109.827 69.0017 109.827 66.2862 108.449L51.6069 99.5177C49.2063 98.1406 47.5141 95.3863 47.5141 92.3173V75.162C47.5141 72.4077 48.8915 69.6928 51.6069 67.9616L66.2862 59.3839C68.6868 58.0068 71.7565 58.0068 74.4719 59.3839L89.1512 68.3157C91.5518 69.6928 93.2441 72.4471 93.2441 75.5162V86.848L106.231 79.2934V67.6468C106.231 64.8925 104.854 62.1776 102.138 60.4463L74.8261 44.3141C72.4255 42.937 69.3559 42.937 66.6404 44.3141L38.6593 60.8004C35.9438 62.1776 34.5664 64.9319 34.5664 67.6468V99.8718C34.5664 102.626 35.9438 105.341 38.6593 107.072L66.3255 123.205C68.7262 124.582 71.7958 124.582 74.5113 123.205L93.2834 112.227L106.27 104.672L125.043 93.6944C127.443 92.3173 130.513 92.3173 133.228 93.6944L147.908 102.272C150.308 103.649 152 106.403 152 109.472V126.628C152 129.382 150.623 132.097 147.908 133.828L133.583 142.406C131.182 143.783 128.112 143.783 125.397 142.406L110.678 133.828C108.278 132.451 106.585 129.697 106.585 126.628V115.65L93.5983 123.205V134.536C93.5983 137.291 94.9757 140.006 97.6911 141.737L125.357 157.869C127.758 159.246 130.828 159.246 133.543 157.869L161.209 141.737C163.61 140.36 165.302 137.605 165.302 134.536V101.957C165.302 99.2029 163.925 96.488 161.209 94.7568L133.543 78.6245Z" fill="white"/>
</g>
</svg>
